<svg version="1.1" xmlns="http://www.w3.org/2000/svg" xmlns:xlink="http://www.w3.org/1999/xlink" x="0px" y="0px" width="200px"
     height="208.065px" viewBox="0 0 200 208.065" enable-background="new 0 0 200 208.065" xml:space="preserve">
<g id="Oval_Schatten_Schwarz">
	<path d="M182.526,56.865c9.724,7.39,14.276,18.244,12.704,30.343c-1.442,7.435-5.015,14.509-11.299,19.716l-38.421,35.287
		c-17.409,13.698-41.178,19.243-63.807,13.36c-10.033-2.787-19.288-7.569-27.646-14.235l-35.855-32.139
		c-11.145-8.815-15.238-23.73-10.75-37.053c1.986-5.783,5.677-10.757,10.551-14.876l33.52-29.914
		c19.9-19.741,53.04-25.049,78.544-13.337c6.705,2.809,12.784,7.108,18.49,11.811L182.526,56.865z"/>
</g>
    <g id="Oval_3D_hinten">
	<g>
		<defs>
			<path id="SVGID_1_" d="M183.326,54.265c9.725,7.39,14.276,18.244,12.705,30.343c-1.442,7.434-5.016,14.509-11.3,19.716
				l-38.421,35.287c-17.409,13.698-41.178,19.243-63.807,13.36c-10.032-2.787-19.288-7.569-27.646-14.235l-35.855-32.139
				C7.857,97.782,3.764,82.867,8.252,69.543c1.986-5.783,5.677-10.757,10.552-14.876l33.52-29.914
				c19.9-19.741,53.04-25.049,78.545-13.337c6.704,2.809,12.783,7.108,18.49,11.811L183.326,54.265z"/>
		</defs>
        <radialGradient id="SVGID_2_" cx="158.0645" cy="37.0967" r="132.6115" gradientUnits="userSpaceOnUse">
			<stop offset="0" style="stop-color:#E6E6E6"/>
            <stop offset="1" style="stop-color:#D5D5D5"/>
		</radialGradient>
        <use xlink:href="#SVGID_1_" overflow="visible" fill="url(#SVGID_2_)"/>
        <clipPath id="SVGID_3_">
			<use xlink:href="#SVGID_1_" overflow="visible"/>
		</clipPath>
	</g>
</g>
    <g id="Oval_3D_vorne">
	<g>
		<defs>
			<path id="SVGID_4_" d="M147.872,24.939l34.001,31.07c9.141,6.906,13.391,16.919,11.92,28.236
				c-1.363,7.024-4.709,13.545-10.552,18.368l-38.398,35.271c-16.867,13.271-39.825,18.596-61.75,12.896
				c-9.729-2.703-18.644-7.294-26.771-13.776L20.463,104.86C10.057,96.667,6.198,82.747,10.399,70.274
				c1.831-5.332,5.25-9.972,9.868-13.874l33.611-29.995c19.216-19.102,51.407-24.279,76.113-12.897
				C136.401,16.194,142.238,20.297,147.872,24.939z"/>
		</defs>
        <radialGradient id="SVGID_5_" cx="130.6455" cy="51.6128" r="113.4806" gradientUnits="userSpaceOnUse">
			<stop offset="0" style="stop-color:#FFFFFF"/>
            <stop offset="0.2393" style="stop-color:#FFFFFF"/>
            <stop offset="0.2563" style="stop-color:#FEFEFE"/>
            <stop offset="0.7248" style="stop-color:#EDEDED"/>
            <stop offset="1" style="stop-color:#E6E6E6"/>
		</radialGradient>
        <use xlink:href="#SVGID_4_" overflow="visible" fill-rule="evenodd" clip-rule="evenodd" fill="url(#SVGID_5_)"/>
        <clipPath id="SVGID_6_">
			<use xlink:href="#SVGID_4_" overflow="visible"/>
		</clipPath>
	</g>
</g>
    <g id="Das_Original">
	<g>
		<path fill-rule="evenodd" clip-rule="evenodd" d="M30.527,185.508c0-3.672-0.816-6.493-2.55-8.499
			c-2.21-2.516-4.828-3.332-9.247-3.332h-4.896v23.525h5.813c4.385,0,6.425-0.782,8.397-3.297
			C29.644,191.865,30.527,189.078,30.527,185.508z M26.176,185.916c0,5.337-1.666,8.091-5.813,8.091h-2.584v-17.236h2.482
			c2.108,0,3.332,0.544,4.419,2.04C25.904,180.477,26.176,182.891,26.176,185.916z"/>
        <path fill-rule="evenodd" clip-rule="evenodd" d="M47.625,195.537c-1.326-0.918-1.53-1.666-1.496-3.978l0.068-4.93
			c0.034-2.549,0.034-3.467-0.272-4.215c-0.748-1.87-2.549-2.855-5.235-2.855c-2.584,0-4.726,0.714-7.309,2.346l1.666,2.686
			c0,0,2.652-1.972,5.134-1.972c2.04,0,2.379,1.054,2.379,3.025v0.918h-1.156c-5.507,0-8.499,2.006-8.499,5.983
			c0,2.992,1.768,5.167,5.711,5.167c1.836,0,3.332-0.544,4.726-2.107c0.408,1.088,1.292,1.904,2.346,2.312L47.625,195.537z
			 M42.491,189.112l-0.068,4.08c-0.748,1.087-1.904,1.802-3.094,1.802c-1.496,0-2.38-1.02-2.38-2.652
			c0-2.176,1.122-3.264,4.862-3.264C42.083,189.078,42.491,189.112,42.491,189.112z"/>
        <path fill-rule="evenodd" clip-rule="evenodd" d="M63.294,191.832c0-2.006-0.918-3.91-4.385-4.793l-2.142-0.544
			c-1.734-0.442-2.312-0.986-2.312-2.04c0-1.326,1.02-2.209,2.618-2.209c1.36,0,2.618,0.408,4.215,1.258l1.224-2.584
			c-1.462-0.782-3.332-1.496-5.677-1.496c-3.808,0-6.392,2.244-6.392,5.473c0,2.414,1.53,4.182,4.114,4.726l2.074,0.442
			c1.938,0.408,2.788,1.088,2.788,2.414c0,1.428-1.156,2.414-2.788,2.414c-1.938,0-4.046-0.918-5.576-1.802l-1.326,2.686
			c2.21,1.224,4.487,1.904,6.595,1.904C60.473,197.679,63.294,195.299,63.294,191.832z"/>
        <path fill-rule="evenodd" clip-rule="evenodd" d="M92.284,185.474c0-6.867-3.196-12.137-9.825-12.137
			c-5.881,0-9.825,4.352-9.825,12.103c0,6.969,3.298,12.137,9.995,12.137C88.748,197.577,92.284,192.817,92.284,185.474z
			 M87.83,185.712c0,6.323-1.802,8.907-5.304,8.907c-4.011,0-5.541-3.366-5.541-9.417c0-5.643,1.496-8.839,5.439-8.839
			C86.64,176.363,87.83,179.967,87.83,185.712z"/>
        <path fill-rule="evenodd" clip-rule="evenodd" d="M105.714,179.797c-0.441-0.204-0.781-0.272-1.325-0.272
			c-1.666,0-3.026,0.884-4.386,2.753c0-0.952-0.238-1.938-0.646-2.719l-3.434,0.884c0.374,1.054,0.612,2.448,0.612,4.624v12.136
			h3.74v-11.626c0.34-1.394,1.666-2.55,3.23-2.55c0.408,0,0.68,0.102,1.054,0.238L105.714,179.797z"/>
        <path fill-rule="evenodd" clip-rule="evenodd" d="M113.497,174.969c0-1.428-1.123-2.516-2.448-2.516
			c-1.394,0-2.481,1.122-2.481,2.516c0,1.36,1.054,2.482,2.413,2.482C112.374,177.451,113.497,176.329,113.497,174.969z
			 M112.885,197.203v-17.61l-3.774,0.68v16.93H112.885z"/>
        <path fill-rule="evenodd" clip-rule="evenodd" d="M134.237,181.633l-1.734-2.346c-0.952,0.782-2.006,1.189-3.128,1.189
			c-1.394,0-2.788-0.884-5.235-0.884c-4.113,0-6.867,2.312-6.867,5.813c0,2.448,1.325,4.113,3.909,4.861
			c-1.835,0.578-3.264,1.258-3.264,2.958s1.021,2.618,5.644,2.618c3.195,0,4.76,0.51,4.76,2.38c0,1.598-1.428,2.686-4.08,2.686
			c-2.413,0-3.773-0.884-3.773-2.482c0-0.543,0.272-1.224,0.272-1.224h-3.535c0,0-0.341,1.02-0.341,1.836
			c0,3.229,3.229,4.691,7.684,4.691c4.59,0,7.649-1.972,7.649-5.644c0-3.501-2.958-4.895-5.712-4.895
			c-4.046,0-4.283-0.068-4.283-0.714c0-0.544,1.088-1.189,2.312-1.631c4.046,0,6.527-2.278,6.527-5.27
			c0-1.87-1.122-3.026-1.122-3.026s0.51,0.204,1.326,0.204C132.401,182.754,133.285,182.449,134.237,181.633z M127.063,185.372
			c0,1.904-1.021,2.924-2.958,2.924c-1.835,0-2.958-0.918-2.958-2.89c0-1.938,1.055-2.992,2.958-2.992
			C126.077,182.415,127.063,183.435,127.063,185.372z"/>
        <path fill-rule="evenodd" clip-rule="evenodd" d="M141.849,174.969c0-1.428-1.121-2.516-2.447-2.516
			c-1.395,0-2.482,1.122-2.482,2.516c0,1.36,1.055,2.482,2.415,2.482C140.728,177.451,141.849,176.329,141.849,174.969z
			 M141.237,197.203v-17.61l-3.773,0.68v16.93H141.237z"/>
        <path fill-rule="evenodd" clip-rule="evenodd" d="M159.801,197.203v-12.851c0-3.161-1.835-4.759-4.487-4.759
			c-1.836,0-3.434,0.816-5.27,2.38c0-0.918-0.203-1.666-0.612-2.448l-3.399,0.952c0.477,1.224,0.646,2.278,0.646,4.08v12.646h3.672
			v-12.477c1.121-1.122,2.686-1.938,3.773-1.938c1.428,0,1.972,0.646,1.972,2.992v11.422H159.801z"/>
        <path fill-rule="evenodd" clip-rule="evenodd" d="M178.432,195.537c-1.325-0.918-1.529-1.666-1.495-3.978l0.068-4.93
			c0.034-2.549,0.034-3.467-0.272-4.215c-0.748-1.87-2.55-2.855-5.235-2.855c-2.584,0-4.726,0.714-7.31,2.346l1.666,2.686
			c0,0,2.652-1.972,5.134-1.972c2.039,0,2.379,1.054,2.379,3.025v0.918h-1.155c-5.508,0-8.499,2.006-8.499,5.983
			c0,2.992,1.768,5.167,5.711,5.167c1.836,0,3.332-0.544,4.726-2.107c0.408,1.088,1.292,1.904,2.346,2.312L178.432,195.537z
			 M173.299,189.112l-0.068,4.08c-0.747,1.087-1.903,1.802-3.093,1.802c-1.496,0-2.381-1.02-2.381-2.652
			c0-2.176,1.122-3.264,4.861-3.264C172.891,189.078,173.299,189.112,173.299,189.112z"/>
        <path fill-rule="evenodd" clip-rule="evenodd" d="M188.255,197.168l-0.612-2.312c-0.441,0.204-1.02,0.034-1.224-0.272
			c-0.271-0.408-0.374-0.782-0.374-3.094v-14.584c0-2.244-0.034-3.671-0.306-4.726l-3.842,0.85c0.237,1.428,0.34,2.686,0.34,5.031
			v14.652c0,1.462,0,4.861,3.773,4.861C186.86,197.577,187.575,197.441,188.255,197.168z"/>
	</g>
</g>
    <g id="elring">
	<g>
		<path fill-rule="evenodd" clip-rule="evenodd" fill="#C4182A" d="M153.129,50.015c1.719,3.243,3.16,6.638,4.3,10.161
			c-3.119,1.312-5.854,3.56-8.11,6.253c-4.094-17.86-20.946-34.126-39.082-37.322c-19.184-3.325-37.014,3.562-49.048,18.465
			c-3.547,4.709-6.479,9.667-8.403,15.046c-2.472-2.131-5.378-3.23-8.305-4.201c2.047-6.894,6.2-13.17,10.943-19.052
			c16.529-18.883,42.956-26.259,66.44-17C134.478,27.052,146.689,37.774,153.129,50.015z"/>
        <path fill-rule="evenodd" clip-rule="evenodd" fill="#C4182A" d="M52.98,97.401c6.101,18.526,24.321,33.181,43.968,34.196
			c19.383,1.084,36.895-8.514,46.801-25.305l2.686-5.284c2.481,2.257,5.171,4.021,8.057,5.256
			c-9.311,20.898-31.374,35.567-54.417,35.103c-22.358,0.156-43.362-13.423-53.25-33.61c-1.03-1.917-1.836-3.895-2.443-5.96
			C47.553,101.054,50.24,99.173,52.98,97.401z"/>
        <g>
			<path fill-rule="evenodd" clip-rule="evenodd" fill="#C4182A" d="M48.779,75.32l0.098,0.488c-6.624,0.138-13.731,0.138-20.323,0
				c1.634-4.062,5.517-6.847,9.868-7.035C42.766,68.791,47.089,71.135,48.779,75.32z M56.4,70.142
				c2.168,3.9,3.023,9.078,2.052,13.581l-29.898,0.195c-0.174,0.65,0.461,1.237,0.684,1.856c2.562,4.216,7.129,6.292,12.115,5.178
				c2.341-0.718,4.9-2.526,6.395-4.691l0.347,0.001h9.478c-1.447,5.779-6.869,11.274-12.506,13.19
				c-7.405,2.188-15.611,0.429-20.909-5.374c-5.18-5.481-7.012-13.785-4.396-21.006c2.49-7.237,9.817-12.903,17.587-13.385
				C45.208,59.242,52.634,63.076,56.4,70.142z"/>
		</g>
        <polygon fill-rule="evenodd" clip-rule="evenodd" fill="#C4182A" points="71.833,98.98 62.149,98.969 62.149,54.689
			71.838,54.705 		"/>
        <path fill-rule="evenodd" clip-rule="evenodd" fill="#C4182A" d="M96.13,77.079c-3.014-0.399-6.018,0.357-7.621,3.028
			c0,0-0.671,0.887-0.684,2.15c-0.013,1.262,0,0,0,0l0.019,16.678L78.51,98.94l-0.016-31.34c3.045-0.007,6.293-0.006,9.233,0.001
			c0.085,0.114,0.057,2.401,0.169,2.853c2.263-2.059,5.073-3.739,8.233-3.048V77.079z"/>
        <polygon fill-rule="evenodd" clip-rule="evenodd" fill="#C4182A" points="109.846,64.768 100.466,64.768 100.481,54.521
			109.846,54.509 		"/>
        <path fill-rule="evenodd" clip-rule="evenodd" fill="#C4182A" d="M142.968,71.51c1.108,1.995,1.06,4.486,1.172,6.937v20.225
			l-9.664,0.006l-0.008-19.743c0.01-1.254-0.649-2.402-1.661-3.028c-1.113-0.497-2.358-0.375-3.42,0.097
			c-2.48,1.604-2.187,4.706-2.149,7.523v15.242h-9.575V67.504l9.481,0.015c0.004,0.817-0.115,1.76,0.289,2.525
			c2.967-2.621,7.534-3.72,11.334-2.052C140.413,68.547,141.951,69.988,142.968,71.51z"/>
        <path fill-rule="evenodd" clip-rule="evenodd" fill="#C4182A" d="M171.981,74.441c1.619,1.946,1.766,4.754,1.367,7.328
			c-0.994,2.995-3.926,5.877-7.132,6.253c-3.461,0.503-6.538-1.108-8.403-4.006c-1.53-2.134-1.579-5.699-0.487-8.012
			c1.302-2.768,3.964-4.941,7.034-5.178C167.323,70.648,170.156,71.869,171.981,74.441z M179.017,67.114l3.028,0.098l-0.098,26.992
			c-1.973,5.876-7.086,11.131-13.862,11.884c-7.711,0.844-15.341-1.694-20.433-6.804c0.889-2.526,1.328-5.212,2.247-7.718
			c4.309,5.217,10.159,8.548,17.381,7.337c2.021-0.339,3.548-1.298,4.663-2.415c0.933-0.932,1.091-1.428,1.21-2.604l-0.195-0.195
			c-3.827,3.043-9.25,3.287-13.776,1.661c-6.464-2.013-11.178-8.875-11.627-15.437c-0.333-7.067,2.672-13.49,8.794-17.098
			c4.941-3.353,13.002-3.011,17.978,0.098C175.993,64.005,177.728,65.421,179.017,67.114z"/>
        <polygon fill-rule="evenodd" clip-rule="evenodd" fill="#C4182A" points="109.855,98.975 100.459,98.98 100.458,67.505
			109.846,67.504 		"/>
        <path fill-rule="evenodd" clip-rule="evenodd" fill="#C4182A" d="M146.992,28.457l20.421,18.954
			c8.164,8.885,21.206,15.431,22.766,27.943c1.836,12.008-4.416,22.022-13.875,29.116l-31.56,29.409
			c-18.015,16.081-47.104,20.916-69.468,10.942c-7.09-3.312-14.027-6.927-19.932-12.994L18.998,98.999
			c-6.523-6.874-8.379-17.18-5.96-26.478c1.636-4.673,4.127-9.435,8.305-12.604L55.54,29.434
			c17.75-18.247,46.595-23.742,70.153-14.362C133.324,18.221,140.627,22.373,146.992,28.457z M147.872,24.939l34.001,31.07
			c9.141,6.906,13.391,16.919,11.92,28.236c-1.363,7.024-4.709,13.545-10.552,18.368l-38.398,35.271
			c-16.867,13.271-39.825,18.596-61.75,12.896c-9.729-2.703-18.644-7.294-26.771-13.776L20.463,104.86
			C10.057,96.667,6.198,82.747,10.399,70.274c1.831-5.332,5.25-9.972,9.868-13.874l33.611-29.995
			c19.216-19.102,51.407-24.279,76.113-12.897C136.401,16.194,142.238,20.297,147.872,24.939z"/>
	</g>
</g>
</svg>
